<?xml version="1.0" encoding="UTF-8"?>
<svg id="Layer_2" data-name="Layer 2" xmlns="http://www.w3.org/2000/svg" viewBox="0 0 675.39 116.57">
  <defs>
    <style>
      .cls-1 {
        fill: #fff;
        stroke-width: 0px;
      }
    </style>
  </defs>
  <g id="Layer_1-2" data-name="Layer 1">
    <g>
      <g>
        <g>
          <path class="cls-1" d="M35.27,21.62c-1.26,5.72-5.23,10.88-9.08,15.91-2.18,2.84-4.44,5.78-6.15,8.77l-.03.06c-2.82,5.8-1.88,10.55-.59,13.51,0,0,0,0,0,0,.13.3-.17.62-.47.49-7.42-3-12.65-10.28-12.65-18.78,0-2.2.49-4.4,1.34-6.52.84-2.12,2.04-4.16,3.46-6.02.11-.15.29-.38.53-.67.09-.12.19-.23.29-.35,1.06-1.29,2.8-3.31,3.94-4.64.55-.63,1.11-1.25,1.69-1.85,1.81-1.9,7.33-8.84,5.69-21.54,0,0,14.28,9.11,12.04,21.62Z"/>
          <path class="cls-1" d="M46.78,41.58c0,11.18-9.07,20.25-20.25,20.25-.48,0-.95-.02-1.43-.05-1.83-.13-3.44-1.3-4.12-3-1.13-2.82-1.62-6.77.7-11.58,1.65-2.86,3.76-5.62,6-8.53,3.63-4.74,7.37-9.6,9.02-15.05,5.38,4.31,10.08,11.15,10.08,17.96Z"/>
        </g>
        <g>
          <rect class="cls-1" y="64.51" width="53.07" height="4.35"/>
          <rect class="cls-1" x="3.57" y="71.74" width="46.99" height="4.35"/>
          <path class="cls-1" d="M39.4,78.96h-7.07s-4.35,0-4.35,0h0s-2.72,0-2.72,0h0s-4.35,0-4.35,0h0s-2.72,0-2.72,0H6.76v31.39h4.35v-27.04h2.72v30.31h4.35v-30.31h2.72v33.26h11.42v-33.26h2.72v30.31h4.35v-30.31h3.1v27.04h4.35v-31.39h-7.46ZM27.98,112.22h-2.72v-28.91h2.72v28.91Z"/>
        </g>
      </g>
      <g>
        <path class="cls-1" d="M96.96,11.95h8.45v26.57h-6.47v-15.94l-6.31,15.94h-5l-6.31-15.94v15.94h-6.47V11.95h8.37l6.9,17.93,6.82-17.93Z"/>
        <path class="cls-1" d="M138.53,25.23c0,4.18-1.35,7.54-4.05,10.07-2.67,2.54-6.03,3.81-10.07,3.81s-7.55-1.26-10.19-3.77c-2.62-2.49-3.93-5.86-3.93-10.11s1.32-7.59,3.97-10.07c2.67-2.54,6.05-3.81,10.15-3.81s7.48,1.27,10.15,3.81c2.64,2.49,3.97,5.84,3.97,10.07ZM124.41,32.77c2.04,0,3.67-.67,4.92-2,1.24-1.33,1.86-3.18,1.86-5.53s-.62-4.2-1.86-5.53c-1.24-1.33-2.88-2-4.92-2s-3.71.66-4.94,1.98c-1.23,1.32-1.84,3.17-1.84,5.55s.61,4.23,1.84,5.55c1.23,1.32,2.88,1.98,4.94,1.98Z"/>
        <path class="cls-1" d="M160.05,26.26v-14.32h6.46v26.57h-5.63l-12.41-17.29v17.29h-6.47V11.95h7.38l10.67,14.32Z"/>
        <path class="cls-1" d="M170.75,11.95h24.75v5.95h-8.92v20.62h-6.86v-20.62h-8.96v-5.95Z"/>
        <path class="cls-1" d="M217.88,22.06v-10.11h6.82v26.57h-6.82v-10.51h-10.19v10.51h-6.86V11.95h6.86v10.11h10.19Z"/>
        <path class="cls-1" d="M238.08,32.61l13.37-.04v5.95l-13.37.04h-6.86V11.95h20.15v5.95h-13.29v4.16h9.2v5.47h-9.2v5.08Z"/>
        <path class="cls-1" d="M96.96,45h8.45v26.57h-6.47v-15.94l-6.31,15.94h-5l-6.31-15.94v15.94h-6.47v-26.57h8.37l6.9,17.93,6.82-17.93Z"/>
        <path class="cls-1" d="M137.69,71.57h-7.54l-1.75-4.88h-10.79l-1.75,4.88h-7.1l10.83-26.57h7.65l10.43,26.57ZM123.02,51.82l-3.41,9.4h6.82l-3.41-9.4Z"/>
        <path class="cls-1" d="M164.6,67.53v.83c0,.48.22.97.67,1.47.48.48.71.87.71,1.19v.56h-7.18c-.71,0-1.07-1.11-1.07-3.33v-.91c0-2.19-.32-3.61-.95-4.24s-1.68-.95-3.13-.95h-4.32v9.44h-6.86v-26.57h14.95c2.67.03,4.78.7,6.33,2.02,1.55,1.32,2.32,3.15,2.32,5.47,0,3.57-1.92,5.91-5.75,7.02,2.86.85,4.28,3.52,4.28,8.01ZM149.32,50.95v5.32h6.66c.82,0,1.48-.25,1.98-.75s.75-1.18.75-2.02c0-.79-.24-1.41-.73-1.86-.49-.45-1.16-.67-2-.67h-6.66Z"/>
        <path class="cls-1" d="M187.93,61.22v-16.22h6.86v17.02c0,3.12-1.03,5.59-3.09,7.42-2.06,1.82-4.92,2.74-8.57,2.74s-6.5-.91-8.57-2.74c-2.06-1.82-3.09-4.3-3.09-7.42v-17.02h6.86v16.22c0,1.35.44,2.45,1.33,3.31.89.86,2.04,1.29,3.47,1.29s2.58-.43,3.47-1.29c.89-.86,1.33-1.96,1.33-3.31Z"/>
        <path class="cls-1" d="M220.59,45h8.45v26.57h-6.47v-15.94l-6.31,15.94h-5l-6.31-15.94v15.94h-6.47v-26.57h8.37l6.9,17.93,6.82-17.93Z"/>
        <path class="cls-1" d="M259.46,58.29c0,4.18-1.35,7.54-4.05,10.07-2.67,2.54-6.03,3.81-10.07,3.81s-7.55-1.26-10.19-3.77c-2.62-2.49-3.93-5.86-3.93-10.11s1.32-7.59,3.97-10.07c2.67-2.54,6.05-3.81,10.15-3.81s7.48,1.27,10.15,3.81c2.64,2.49,3.97,5.84,3.97,10.07ZM245.34,65.82c2.04,0,3.67-.67,4.92-2,1.24-1.33,1.86-3.18,1.86-5.53s-.62-4.2-1.86-5.53c-1.24-1.33-2.88-2-4.92-2s-3.71.66-4.94,1.98c-1.23,1.32-1.84,3.17-1.84,5.55s.61,4.23,1.84,5.55c1.23,1.32,2.88,1.98,4.94,1.98Z"/>
        <path class="cls-1" d="M97.56,98.6l7.62,6.03h-9l-2.86-2.22c-2.12,1.48-4.16,2.22-6.15,2.22h-14.28v-7.62l6.78-5.24-1.19-.91c-1.24-.98-2.14-1.93-2.68-2.86-.54-.93-.81-2-.81-3.21,0-2.17.88-3.91,2.64-5.24,1.76-1.32,4.14-1.98,7.16-1.98s5.31.58,7.04,1.75c1.73,1.16,2.6,2.7,2.6,4.6s-1.11,3.83-3.33,5.55l-2.54,1.94,4.72,3.73c1.56-1.56,3.25-3.78,5.08-6.66l4.05,3.89c-1.61,2.33-3.23,4.4-4.84,6.23ZM78.64,99.15h7.34c.79,0,1.63-.17,2.5-.52l-4.6-3.57-5.24,4.09ZM82.41,86.54l1.98,1.59,2.62-2.02c.77-.5.94-1.08.52-1.75-.48-.79-1.47-1.16-2.97-1.11-1.08,0-1.92.15-2.5.44-.58.29-.87.69-.87,1.19,0,.45.41,1,1.23,1.67Z"/>
        <path class="cls-1" d="M128.29,98.87c1.85,0,3.31-.43,4.38-1.29,1.07-.86,1.88-2.16,2.44-3.91l6.35,2.02c-1.75,6.35-6.17,9.52-13.29,9.52-4.2,0-7.6-1.26-10.19-3.77-2.59-2.51-3.89-5.88-3.89-10.11s1.33-7.56,4.01-10.07c2.64-2.54,6.04-3.81,10.19-3.81,7.09,0,11.54,3.17,13.37,9.52l-6.78,2.02c-.48-1.8-1.24-3.11-2.28-3.95-1.04-.83-2.48-1.25-4.3-1.25-2.09,0-3.75.66-5,1.98-1.24,1.32-1.86,3.17-1.86,5.55s.62,4.23,1.86,5.55c1.24,1.32,2.91,1.98,5,1.98Z"/>
        <path class="cls-1" d="M173.59,91.34c0,4.18-1.35,7.54-4.05,10.07-2.67,2.54-6.03,3.81-10.07,3.81s-7.55-1.26-10.19-3.77c-2.62-2.49-3.93-5.86-3.93-10.11s1.32-7.59,3.97-10.07c2.67-2.54,6.05-3.81,10.15-3.81s7.48,1.27,10.15,3.81c2.64,2.49,3.97,5.84,3.97,10.07ZM159.47,98.87c2.04,0,3.67-.67,4.92-2,1.24-1.33,1.86-3.18,1.86-5.53s-.62-4.2-1.86-5.53c-1.24-1.33-2.88-2-4.92-2s-3.71.66-4.94,1.98c-1.23,1.32-1.84,3.17-1.84,5.55s.61,4.23,1.84,5.55c1.23,1.32,2.88,1.98,4.94,1.98Z"/>
        <path class="cls-1" d="M177.08,104.62v-6.39h6.47v6.39h-6.47Z"/>
      </g>
      <g>
        <g>
          <path class="cls-1" d="M434.03,74.49v8.02h4.95v2.31h-7.62v-10.33h2.67Z"/>
          <path class="cls-1" d="M440.53,84.82v-10.33h2.67v10.33h-2.67Z"/>
          <path class="cls-1" d="M444.89,74.49h9.62v2.31h-3.47v8.02h-2.67v-8.02h-3.49v-2.31Z"/>
          <path class="cls-1" d="M456.21,84.82v-10.33h2.67v10.33h-2.67Z"/>
          <path class="cls-1" d="M465.34,80.97v-1.57h6.12v5.41h-1.54l-.43-1.73c-.74,1.32-1.99,1.97-3.76,1.97-1.4,0-2.58-.49-3.53-1.48-.95-1-1.42-2.3-1.42-3.92s.52-2.93,1.56-3.92c1.03-.99,2.34-1.48,3.93-1.48,1.29,0,2.4.32,3.33.97.94.65,1.57,1.56,1.9,2.73l-2.61.79c-.42-1.35-1.29-2.02-2.59-2.02-.81,0-1.46.26-1.94.77-.48.51-.72,1.23-.72,2.16s.24,1.67.73,2.21c.49.54,1.13.81,1.94.81.62,0,1.14-.15,1.57-.46.43-.3.74-.72.93-1.26h-3.46Z"/>
          <path class="cls-1" d="M483.95,84.82h-2.93l-.68-1.9h-4.2l-.68,1.9h-2.76l4.21-10.33h2.98l4.06,10.33ZM478.24,77.14l-1.33,3.66h2.65l-1.33-3.66Z"/>
          <path class="cls-1" d="M483.48,74.49h9.62v2.31h-3.47v8.02h-2.67v-8.02h-3.49v-2.31Z"/>
          <path class="cls-1" d="M494.8,84.82v-10.33h2.67v10.33h-2.67Z"/>
          <path class="cls-1" d="M510.35,79.65c0,1.62-.52,2.93-1.57,3.92-1.04.99-2.34,1.48-3.92,1.48s-2.94-.49-3.96-1.47c-1.02-.97-1.53-2.28-1.53-3.93s.51-2.95,1.54-3.92c1.04-.99,2.35-1.48,3.95-1.48s2.91.49,3.95,1.48c1.03.97,1.54,2.27,1.54,3.92ZM504.86,82.59c.79,0,1.43-.26,1.91-.78.48-.52.73-1.24.73-2.15s-.24-1.63-.73-2.15c-.48-.52-1.12-.78-1.91-.78s-1.44.26-1.92.77c-.48.51-.72,1.23-.72,2.16s.24,1.65.72,2.16c.48.51,1.12.77,1.92.77Z"/>
          <path class="cls-1" d="M519.27,80.05v-5.57h2.51v10.33h-2.19l-4.83-6.72v6.72h-2.51v-10.33h2.87l4.15,5.57Z"/>
        </g>
        <g>
          <path class="cls-1" d="M286.33,82.59c.72,0,1.29-.17,1.7-.5.42-.33.73-.84.95-1.52l2.47.79c-.68,2.47-2.4,3.7-5.17,3.7-1.64,0-2.96-.49-3.96-1.47-1.01-.98-1.51-2.29-1.51-3.93s.52-2.94,1.56-3.92c1.03-.99,2.35-1.48,3.96-1.48,2.76,0,4.49,1.23,5.2,3.7l-2.64.79c-.19-.7-.48-1.21-.89-1.54-.41-.32-.96-.49-1.67-.49-.81,0-1.46.26-1.94.77-.48.51-.72,1.23-.72,2.16s.24,1.65.72,2.16c.48.51,1.13.77,1.94.77Z"/>
          <path class="cls-1" d="M303.94,79.65c0,1.62-.52,2.93-1.57,3.92-1.04.99-2.34,1.48-3.92,1.48s-2.94-.49-3.96-1.47c-1.02-.97-1.53-2.28-1.53-3.93s.51-2.95,1.54-3.92c1.04-.99,2.35-1.48,3.95-1.48s2.91.49,3.95,1.48c1.03.97,1.54,2.27,1.54,3.92ZM298.45,82.59c.79,0,1.43-.26,1.91-.78.48-.52.73-1.24.73-2.15s-.24-1.63-.73-2.15c-.48-.52-1.12-.78-1.91-.78s-1.44.26-1.92.77c-.48.51-.72,1.23-.72,2.16s.24,1.65.72,2.16c.48.51,1.12.77,1.92.77Z"/>
          <path class="cls-1" d="M314.45,83.25v.32c0,.18.09.38.26.57.19.19.28.34.28.46v.22h-2.79c-.28,0-.42-.43-.42-1.3v-.35c0-.85-.12-1.4-.37-1.65-.25-.25-.65-.37-1.22-.37h-1.68v3.67h-2.67v-10.33h5.82c1.04,0,1.86.27,2.46.79.6.51.9,1.22.9,2.13,0,1.39-.75,2.3-2.24,2.73,1.11.33,1.67,1.37,1.67,3.12ZM308.51,76.8v2.07h2.59c.32,0,.58-.1.77-.29s.29-.46.29-.79c0-.31-.1-.55-.29-.73-.19-.17-.45-.26-.78-.26h-2.59Z"/>
          <path class="cls-1" d="M317.18,74.49h5.17c1.05,0,1.89.31,2.53.94.66.62.99,1.48.99,2.59s-.38,1.97-1.13,2.62c-.74.65-1.64.97-2.7.97h-2.19v3.21h-2.67v-10.33ZM319.85,79.31l1.97.02c.79,0,1.19-.44,1.19-1.31,0-.82-.4-1.23-1.19-1.23h-1.97v2.53Z"/>
          <path class="cls-1" d="M338.12,79.65c0,1.62-.52,2.93-1.57,3.92-1.04.99-2.34,1.48-3.92,1.48s-2.94-.49-3.96-1.47c-1.02-.97-1.53-2.28-1.53-3.93s.51-2.95,1.54-3.92c1.04-.99,2.35-1.48,3.95-1.48s2.91.49,3.95,1.48c1.03.97,1.54,2.27,1.54,3.92ZM332.63,82.59c.79,0,1.43-.26,1.91-.78.48-.52.73-1.24.73-2.15s-.24-1.63-.73-2.15c-.48-.52-1.12-.78-1.91-.78s-1.44.26-1.92.77c-.48.51-.72,1.23-.72,2.16s.24,1.65.72,2.16c.48.51,1.12.77,1.92.77Z"/>
          <path class="cls-1" d="M348.63,83.25v.32c0,.18.09.38.26.57.19.19.28.34.28.46v.22h-2.79c-.28,0-.42-.43-.42-1.3v-.35c0-.85-.12-1.4-.37-1.65-.25-.25-.65-.37-1.22-.37h-1.68v3.67h-2.67v-10.33h5.82c1.04,0,1.86.27,2.46.79.6.51.9,1.22.9,2.13,0,1.39-.75,2.3-2.24,2.73,1.11.33,1.67,1.37,1.67,3.12ZM342.69,76.8v2.07h2.59c.32,0,.58-.1.77-.29s.29-.46.29-.79c0-.31-.1-.55-.29-.73-.19-.17-.45-.26-.78-.26h-2.59Z"/>
          <path class="cls-1" d="M361.6,84.82h-2.93l-.68-1.9h-4.2l-.68,1.9h-2.76l4.21-10.33h2.98l4.06,10.33ZM355.89,77.14l-1.33,3.66h2.65l-1.33-3.66Z"/>
          <path class="cls-1" d="M361.14,74.49h9.62v2.31h-3.47v8.02h-2.67v-8.02h-3.49v-2.31Z"/>
          <path class="cls-1" d="M375.13,82.52l5.2-.02v2.31l-5.2.02h-2.67v-10.35h7.84v2.31h-5.17v1.62h3.58v2.13h-3.58v1.97Z"/>
        </g>
        <g>
          <path class="cls-1" d="M285.47,30.16v17.54h-3.07v-17.54h3.07Z"/>
          <path class="cls-1" d="M291.25,47.71h-2.93v-11.86h2.71l.24,1.54c.37-.59.89-1.06,1.57-1.39.68-.34,1.42-.5,2.22-.5,1.49,0,2.61.44,3.37,1.32.76.88,1.14,2.08,1.14,3.6v7.3h-2.93v-6.6c0-.99-.22-1.73-.67-2.22-.45-.49-1.06-.73-1.82-.73-.91,0-1.62.29-2.14.86-.51.58-.77,1.34-.77,2.3v6.38Z"/>
          <path class="cls-1" d="M301.16,41.76c0-1.22.25-2.3.76-3.24.5-.94,1.2-1.68,2.09-2.22.89-.54,1.92-.8,3.08-.8,1.62,0,2.94.42,3.97,1.26,1.03.84,1.63,1.97,1.79,3.4h-2.93c-.18-.67-.5-1.18-.97-1.52-.47-.34-1.06-.52-1.76-.52-.61,0-1.15.15-1.62.44-.47.3-.84.72-1.09,1.26s-.38,1.19-.38,1.94.12,1.4.36,1.94.59.96,1.04,1.26c.46.3,1,.44,1.62.44.74,0,1.35-.18,1.84-.53.49-.35.81-.86.97-1.51h2.95c-.13.93-.45,1.74-.97,2.44-.52.7-1.19,1.24-2,1.63-.82.39-1.74.59-2.78.59-1.2,0-2.25-.26-3.14-.78-.9-.52-1.59-1.25-2.08-2.18-.49-.94-.73-2.04-.73-3.3Z"/>
          <path class="cls-1" d="M313.76,41.76c0-1.23.27-2.32.82-3.25s1.3-1.67,2.26-2.2c.96-.53,2.05-.79,3.26-.79s2.32.26,3.28.79c.95.53,1.7,1.26,2.24,2.2s.82,2.02.82,3.25-.27,2.32-.82,3.25-1.29,1.67-2.24,2.2c-.95.53-2.04.79-3.28.79s-2.3-.26-3.26-.79c-.96-.53-1.71-1.26-2.26-2.2s-.82-2.02-.82-3.25ZM316.69,41.76c0,.72.15,1.35.44,1.9.3.54.7.97,1.2,1.27.5.3,1.09.46,1.76.46s1.26-.15,1.78-.46c.51-.3.91-.73,1.2-1.27.29-.54.43-1.18.43-1.9s-.14-1.37-.43-1.91-.69-.96-1.2-1.26c-.51-.3-1.1-.46-1.78-.46s-1.26.15-1.76.46c-.5.3-.9.72-1.2,1.26-.3.54-.44,1.17-.44,1.91Z"/>
          <path class="cls-1" d="M335.6,35.8v2.71h-1.08c-1.07,0-1.91.28-2.52.85-.61.57-.91,1.43-.91,2.58v5.76h-2.93v-11.83h2.76l.24,2.45h-.29c.16-.78.54-1.42,1.13-1.92.59-.5,1.36-.74,2.3-.74.21,0,.42,0,.62.02.21.02.43.06.67.12Z"/>
          <path class="cls-1" d="M337,53.2v-17.35h2.71l.19,1.8c.35-.69.9-1.22,1.63-1.6s1.54-.56,2.42-.56c1.14,0,2.12.26,2.94.77.82.51,1.47,1.22,1.93,2.14.46.91.7,1.99.7,3.24s-.22,2.33-.65,3.29-1.06,1.72-1.88,2.27c-.82.55-1.83.83-3.01.83-.88,0-1.68-.17-2.41-.5s-1.28-.8-1.64-1.39v7.08h-2.93ZM339.95,41.78c0,.7.14,1.33.41,1.87.27.54.66.97,1.16,1.28s1.09.47,1.76.47,1.28-.16,1.78-.47c.5-.31.87-.74,1.13-1.28.26-.54.38-1.17.38-1.87s-.13-1.33-.38-1.87c-.26-.54-.63-.97-1.13-1.28-.5-.31-1.09-.47-1.78-.47s-1.26.15-1.76.46c-.5.3-.89.73-1.16,1.27-.27.54-.41,1.18-.41,1.9Z"/>
          <path class="cls-1" d="M350.55,41.76c0-1.23.27-2.32.82-3.25s1.3-1.67,2.26-2.2c.96-.53,2.05-.79,3.26-.79s2.32.26,3.28.79c.95.53,1.7,1.26,2.24,2.2s.82,2.02.82,3.25-.27,2.32-.82,3.25-1.29,1.67-2.24,2.2c-.95.53-2.04.79-3.28.79s-2.3-.26-3.26-.79c-.96-.53-1.71-1.26-2.26-2.2s-.82-2.02-.82-3.25ZM353.48,41.76c0,.72.15,1.35.44,1.9.3.54.7.97,1.2,1.27.5.3,1.09.46,1.76.46s1.26-.15,1.78-.46c.51-.3.91-.73,1.2-1.27.29-.54.43-1.18.43-1.9s-.14-1.37-.43-1.91-.69-.96-1.2-1.26c-.51-.3-1.1-.46-1.78-.46s-1.26.15-1.76.46c-.5.3-.9.72-1.2,1.26-.3.54-.44,1.17-.44,1.91Z"/>
          <path class="cls-1" d="M372.39,35.8v2.71h-1.08c-1.07,0-1.91.28-2.52.85-.61.57-.91,1.43-.91,2.58v5.76h-2.93v-11.83h2.76l.24,2.45h-.29c.16-.78.54-1.42,1.13-1.92.59-.5,1.36-.74,2.3-.74.21,0,.42,0,.62.02.21.02.43.06.67.12Z"/>
          <path class="cls-1" d="M376.83,48.02c-1.25,0-2.24-.34-2.96-1.02-.73-.68-1.09-1.57-1.09-2.68s.38-1.96,1.14-2.6c.76-.65,1.84-1.03,3.25-1.14l3.55-.29v-.26c0-.54-.1-.98-.3-1.31-.2-.33-.48-.57-.85-.72-.37-.15-.8-.23-1.3-.23-.86,0-1.53.17-1.99.52-.46.34-.7.83-.7,1.45h-2.5c0-.86.22-1.61.66-2.24.44-.63,1.06-1.12,1.87-1.48.81-.35,1.74-.53,2.8-.53s1.99.19,2.76.56c.77.38,1.36.94,1.78,1.68.42.74.62,1.67.62,2.77v7.2h-2.57l-.22-1.75c-.26.61-.75,1.1-1.48,1.49-.73.38-1.56.58-2.48.58ZM377.77,45.81c.91,0,1.64-.26,2.17-.77.54-.51.8-1.22.8-2.14v-.62l-2.47.19c-.91.08-1.56.27-1.94.56-.38.3-.58.68-.58,1.16,0,.53.18.93.53,1.2.35.27.85.41,1.49.41Z"/>
          <path class="cls-1" d="M384.51,35.85h7.49v2.45h-7.49v-2.45ZM389.72,47.71h-2.93v-15.55h2.93v15.55Z"/>
          <path class="cls-1" d="M394.69,33.48c-.5,0-.92-.17-1.26-.52-.34-.34-.52-.76-.52-1.26s.17-.91.52-1.25c.34-.34.76-.5,1.26-.5s.92.17,1.26.5c.34.34.52.75.52,1.25s-.17.92-.52,1.26-.76.52-1.26.52ZM393.25,47.71v-11.86h2.93v11.86h-2.93Z"/>
          <path class="cls-1" d="M401.53,47.71h-2.93v-11.86h2.71l.24,1.54c.37-.59.89-1.06,1.57-1.39.68-.34,1.42-.5,2.22-.5,1.49,0,2.61.44,3.37,1.32.76.88,1.14,2.08,1.14,3.6v7.3h-2.93v-6.6c0-.99-.22-1.73-.67-2.22-.45-.49-1.06-.73-1.82-.73-.91,0-1.62.29-2.14.86-.51.58-.77,1.34-.77,2.3v6.38Z"/>
          <path class="cls-1" d="M411.47,41.52c0-1.15.24-2.18.71-3.08.47-.9,1.13-1.62,1.98-2.15.85-.53,1.83-.79,2.95-.79,1.01,0,1.87.22,2.59.66.72.44,1.22,1.05,1.51,1.84l-.31.26.24-2.4h2.71v11.26c0,1.31-.25,2.45-.76,3.42-.5.97-1.22,1.71-2.14,2.23-.92.52-2.03.78-3.32.78-1.7,0-3.09-.46-4.18-1.37-1.09-.91-1.73-2.16-1.92-3.74h2.93c.1.77.42,1.37.97,1.8.55.43,1.28.65,2.2.65,1.01,0,1.81-.29,2.41-.88.6-.58.9-1.37.9-2.36v-2.95l.34.31c-.29.75-.82,1.35-1.58,1.8-.77.45-1.66.67-2.66.67-1.12,0-2.1-.26-2.93-.77-.83-.51-1.48-1.22-1.94-2.11-.46-.9-.7-1.92-.7-3.07ZM414.42,41.44c0,.67.13,1.27.4,1.79.26.52.64.93,1.12,1.24.48.3,1.04.46,1.68.46.67,0,1.25-.15,1.74-.44.49-.3.86-.7,1.13-1.22.26-.52.4-1.12.4-1.81s-.13-1.28-.38-1.79c-.26-.5-.63-.9-1.12-1.19-.49-.29-1.08-.43-1.76-.43s-1.22.15-1.7.44c-.48.3-.85.7-1.1,1.21-.26.51-.38,1.1-.38,1.75Z"/>
          <path class="cls-1" d="M435.56,47.71h-2.98v-17.54h2.98l5.66,13.97,5.66-13.97h3.02v17.54h-2.98v-7.62c0-.6,0-1.11.02-1.52.02-.42.03-.78.05-1.1.02-.32.05-.64.1-.96l-4.46,11.21h-2.83l-4.44-11.18c.08.53.13,1.2.16,2.02.02.82.04,1.78.04,2.88v6.29Z"/>
          <path class="cls-1" d="M452.07,41.76c0-1.23.27-2.32.82-3.25s1.3-1.67,2.26-2.2c.96-.53,2.05-.79,3.26-.79s2.32.26,3.28.79c.95.53,1.7,1.26,2.24,2.2s.82,2.02.82,3.25-.27,2.32-.82,3.25-1.29,1.67-2.24,2.2c-.95.53-2.04.79-3.28.79s-2.3-.26-3.26-.79c-.96-.53-1.71-1.26-2.26-2.2s-.82-2.02-.82-3.25ZM455,41.76c0,.72.15,1.35.44,1.9.3.54.7.97,1.2,1.27.5.3,1.09.46,1.76.46s1.26-.15,1.78-.46c.51-.3.91-.73,1.2-1.27.29-.54.43-1.18.43-1.9s-.14-1.37-.43-1.91-.69-.96-1.2-1.26c-.51-.3-1.1-.46-1.78-.46s-1.26.15-1.76.46c-.5.3-.9.72-1.2,1.26-.3.54-.44,1.17-.44,1.91Z"/>
          <path class="cls-1" d="M469.42,47.71h-2.9v-17.86h2.9v17.86Z"/>
          <path class="cls-1" d="M475.42,48.02c-1.25,0-2.24-.34-2.96-1.02-.73-.68-1.09-1.57-1.09-2.68s.38-1.96,1.14-2.6c.76-.65,1.84-1.03,3.25-1.14l3.55-.29v-.26c0-.54-.1-.98-.3-1.31-.2-.33-.48-.57-.85-.72-.37-.15-.8-.23-1.3-.23-.86,0-1.53.17-1.99.52-.46.34-.7.83-.7,1.45h-2.5c0-.86.22-1.61.66-2.24.44-.63,1.06-1.12,1.87-1.48.81-.35,1.74-.53,2.8-.53s1.99.19,2.76.56c.77.38,1.36.94,1.78,1.68.42.74.62,1.67.62,2.77v7.2h-2.57l-.22-1.75c-.26.61-.75,1.1-1.48,1.49-.73.38-1.56.58-2.48.58ZM476.36,45.81c.91,0,1.64-.26,2.17-.77.54-.51.8-1.22.8-2.14v-.62l-2.47.19c-.91.08-1.56.27-1.94.56-.38.3-.58.68-.58,1.16,0,.53.18.93.53,1.2.35.27.85.41,1.49.41Z"/>
          <path class="cls-1" d="M483.11,35.85h7.49v2.45h-7.49v-2.45ZM488.31,47.71h-2.93v-15.55h2.93v15.55Z"/>
          <path class="cls-1" d="M494.77,47.71h-2.93v-17.86h2.95v7.54c.37-.58.88-1.04,1.55-1.38.66-.34,1.43-.52,2.29-.52,1.46,0,2.56.44,3.32,1.32.76.88,1.14,2.08,1.14,3.6v7.3h-2.93v-6.6c0-.67-.1-1.22-.31-1.66-.21-.43-.5-.76-.86-.97-.37-.22-.8-.32-1.3-.32-.61,0-1.13.13-1.57.4-.44.26-.78.63-1.01,1.09-.23.46-.35.99-.35,1.58v6.48Z"/>
          <path class="cls-1" d="M510.68,48.02c-1.17,0-2.2-.27-3.11-.8-.9-.54-1.61-1.27-2.12-2.21-.51-.94-.77-2.01-.77-3.23s.25-2.32.74-3.26c.5-.94,1.19-1.68,2.09-2.22.9-.54,1.92-.8,3.07-.8s2.23.25,3.1.76c.86.5,1.53,1.2,2,2.1s.71,1.97.71,3.22v.89l-10.18.02.05-1.87h7.22c0-.82-.26-1.47-.78-1.97-.52-.5-1.22-.74-2.1-.74-.69,0-1.27.14-1.74.43-.47.29-.83.72-1.07,1.3-.24.58-.36,1.28-.36,2.11,0,1.28.28,2.25.83,2.9.55.66,1.37.98,2.46.98.8,0,1.46-.15,1.98-.46.52-.3.86-.74,1.02-1.3h2.71c-.26,1.3-.89,2.31-1.91,3.05-1.02.74-2.3,1.1-3.85,1.1Z"/>
          <path class="cls-1" d="M517.47,41.52c0-1.15.24-2.18.71-3.08.47-.9,1.13-1.62,1.98-2.15.85-.53,1.83-.79,2.95-.79,1.01,0,1.87.22,2.59.66.72.44,1.22,1.05,1.51,1.84l-.31.26.24-2.4h2.71v11.26c0,1.31-.25,2.45-.76,3.42-.5.97-1.22,1.71-2.14,2.23-.92.52-2.03.78-3.32.78-1.7,0-3.09-.46-4.18-1.37-1.09-.91-1.73-2.16-1.92-3.74h2.93c.1.77.42,1.37.97,1.8.55.43,1.28.65,2.2.65,1.01,0,1.81-.29,2.41-.88.6-.58.9-1.37.9-2.36v-2.95l.34.31c-.29.75-.82,1.35-1.58,1.8-.77.45-1.66.67-2.66.67-1.12,0-2.1-.26-2.93-.77-.83-.51-1.48-1.22-1.94-2.11-.46-.9-.7-1.92-.7-3.07ZM520.42,41.44c0,.67.13,1.27.4,1.79.26.52.64.93,1.12,1.24.48.3,1.04.46,1.68.46.67,0,1.25-.15,1.74-.44.49-.3.86-.7,1.13-1.22.26-.52.4-1.12.4-1.81s-.13-1.28-.38-1.79c-.26-.5-.63-.9-1.12-1.19-.49-.29-1.08-.43-1.76-.43s-1.22.15-1.7.44c-.48.3-.85.7-1.1,1.21-.26.51-.38,1.1-.38,1.75Z"/>
          <path class="cls-1" d="M533.72,33.48c-.5,0-.92-.17-1.26-.52-.34-.34-.52-.76-.52-1.26s.17-.91.52-1.25c.34-.34.76-.5,1.26-.5s.92.17,1.26.5c.34.34.52.75.52,1.25s-.17.92-.52,1.26-.76.52-1.26.52ZM532.28,47.71v-11.86h2.93v11.86h-2.93Z"/>
          <path class="cls-1" d="M547.23,37.53l1.25,1.61c-.7.34-1.28.69-1.72,1.06-.44.37-.76.76-.97,1.18-.21.42-.31.88-.31,1.39,0,.86.32,1.54.97,2.02s1.53.72,2.65.72c1.65,0,2.92-.54,3.83-1.62s1.36-2.6,1.36-4.55h2.86c0,1.74-.34,3.27-1.03,4.57-.69,1.3-1.66,2.32-2.92,3.04-1.26.72-2.73,1.08-4.43,1.08-1.26,0-2.38-.21-3.34-.64-.96-.42-1.71-1-2.24-1.74-.54-.74-.8-1.6-.8-2.59,0-.77.18-1.49.55-2.16s.91-1.29,1.63-1.85c.72-.56,1.61-1.06,2.66-1.51ZM549.85,38.64l-1.39-1.66c.75-.38,1.31-.84,1.67-1.37.36-.53.54-1.12.54-1.78,0-.51-.14-.91-.42-1.2-.28-.29-.68-.43-1.19-.43s-.94.15-1.25.44c-.3.3-.46.7-.46,1.21,0,.3.05.6.16.89.1.29.28.61.53.96.25.35.58.77,1,1.25l9.6,10.75h-3.41l-8.54-9.6c-.77-.86-1.31-1.61-1.63-2.24-.32-.63-.48-1.29-.48-1.98,0-.78.2-1.48.59-2.08s.92-1.07,1.6-1.42c.67-.34,1.44-.52,2.3-.52s1.62.16,2.27.48c.65.32,1.16.77,1.52,1.36.37.58.55,1.26.55,2.03,0,.93-.28,1.78-.84,2.56-.56.78-1.46,1.56-2.71,2.34Z"/>
          <path class="cls-1" d="M566.7,47.71h-3.17l6.34-17.54h3.14l6.34,17.54h-3.24l-1.42-4.06h-6.55l-1.44,4.06ZM571.04,35.4l-2.02,5.66h4.78l-2.02-5.66c-.06-.24-.14-.48-.22-.72-.08-.24-.13-.45-.14-.62-.03.16-.08.36-.16.61-.07.25-.15.49-.23.73Z"/>
          <path class="cls-1" d="M579.61,44.11h2.78c.02.51.21.92.58,1.22.37.3.88.46,1.54.46.7,0,1.24-.13,1.6-.38.36-.26.54-.6.54-1.03,0-.29-.1-.54-.29-.77-.19-.22-.55-.39-1.08-.5l-2.14-.5c-1.07-.24-1.87-.63-2.39-1.16-.52-.54-.78-1.28-.78-2.22,0-.77.2-1.43.61-1.99.41-.56.96-.99,1.67-1.28.7-.3,1.51-.44,2.42-.44s1.66.16,2.33.48c.67.32,1.2.77,1.57,1.34.38.58.57,1.25.59,2.02h-2.78c0-.51-.16-.92-.48-1.21-.32-.3-.77-.44-1.34-.44s-1.02.13-1.34.38c-.32.26-.48.6-.48,1.03,0,.66.51,1.1,1.54,1.34l2.14.5c.99.22,1.74.58,2.24,1.08.5.5.76,1.2.76,2.11,0,.8-.21,1.49-.62,2.08-.42.58-1,1.03-1.75,1.34-.75.31-1.62.47-2.59.47-1.47,0-2.64-.36-3.52-1.08-.87-.72-1.31-1.66-1.31-2.83Z"/>
          <path class="cls-1" d="M590.12,44.11h2.78c.02.51.21.92.58,1.22.37.3.88.46,1.54.46.7,0,1.24-.13,1.6-.38.36-.26.54-.6.54-1.03,0-.29-.1-.54-.29-.77-.19-.22-.55-.39-1.08-.5l-2.14-.5c-1.07-.24-1.87-.63-2.39-1.16-.52-.54-.78-1.28-.78-2.22,0-.77.2-1.43.61-1.99.41-.56.96-.99,1.67-1.28.7-.3,1.51-.44,2.42-.44s1.66.16,2.33.48c.67.32,1.2.77,1.57,1.34.38.58.57,1.25.59,2.02h-2.78c0-.51-.16-.92-.48-1.21-.32-.3-.77-.44-1.34-.44s-1.02.13-1.34.38c-.32.26-.48.6-.48,1.03,0,.66.51,1.1,1.54,1.34l2.14.5c.99.22,1.74.58,2.24,1.08.5.5.76,1.2.76,2.11,0,.8-.21,1.49-.62,2.08-.42.58-1,1.03-1.75,1.34-.75.31-1.62.47-2.59.47-1.47,0-2.64-.36-3.52-1.08-.87-.72-1.31-1.66-1.31-2.83Z"/>
          <path class="cls-1" d="M600.85,41.76c0-1.23.27-2.32.82-3.25s1.3-1.67,2.26-2.2c.96-.53,2.05-.79,3.26-.79s2.32.26,3.28.79c.95.53,1.7,1.26,2.24,2.2s.82,2.02.82,3.25-.27,2.32-.82,3.25-1.29,1.67-2.24,2.2c-.95.53-2.04.79-3.28.79s-2.3-.26-3.26-.79c-.96-.53-1.71-1.26-2.26-2.2s-.82-2.02-.82-3.25ZM603.78,41.76c0,.72.15,1.35.44,1.9.3.54.7.97,1.2,1.27.5.3,1.09.46,1.76.46s1.26-.15,1.78-.46c.51-.3.91-.73,1.2-1.27.29-.54.43-1.18.43-1.9s-.14-1.37-.43-1.91-.69-.96-1.2-1.26c-.51-.3-1.1-.46-1.78-.46s-1.26.15-1.76.46c-.5.3-.9.72-1.2,1.26-.3.54-.44,1.17-.44,1.91Z"/>
          <path class="cls-1" d="M614.55,41.76c0-1.22.25-2.3.76-3.24.5-.94,1.2-1.68,2.09-2.22.89-.54,1.92-.8,3.08-.8,1.62,0,2.94.42,3.97,1.26,1.03.84,1.63,1.97,1.79,3.4h-2.93c-.18-.67-.5-1.18-.97-1.52-.47-.34-1.06-.52-1.76-.52-.61,0-1.15.15-1.62.44-.47.3-.84.72-1.09,1.26s-.38,1.19-.38,1.94.12,1.4.36,1.94.59.96,1.04,1.26c.46.3,1,.44,1.62.44.74,0,1.35-.18,1.84-.53.49-.35.81-.86.97-1.51h2.95c-.13.93-.45,1.74-.97,2.44-.52.7-1.19,1.24-2,1.63-.82.39-1.74.59-2.78.59-1.2,0-2.25-.26-3.14-.78-.9-.52-1.59-1.25-2.08-2.18-.49-.94-.73-2.04-.73-3.3Z"/>
          <path class="cls-1" d="M629.29,33.48c-.5,0-.92-.17-1.26-.52-.34-.34-.52-.76-.52-1.26s.17-.91.52-1.25c.34-.34.76-.5,1.26-.5s.92.17,1.26.5c.34.34.52.75.52,1.25s-.17.92-.52,1.26-.76.52-1.26.52ZM627.85,47.71v-11.86h2.93v11.86h-2.93Z"/>
          <path class="cls-1" d="M636.73,48.02c-1.25,0-2.24-.34-2.96-1.02-.73-.68-1.09-1.57-1.09-2.68s.38-1.96,1.14-2.6c.76-.65,1.84-1.03,3.25-1.14l3.55-.29v-.26c0-.54-.1-.98-.3-1.31-.2-.33-.48-.57-.85-.72-.37-.15-.8-.23-1.3-.23-.86,0-1.53.17-1.99.52-.46.34-.7.83-.7,1.45h-2.5c0-.86.22-1.61.66-2.24.44-.63,1.06-1.12,1.87-1.48.81-.35,1.74-.53,2.8-.53s1.99.19,2.76.56c.77.38,1.36.94,1.78,1.68.42.74.62,1.67.62,2.77v7.2h-2.57l-.22-1.75c-.26.61-.75,1.1-1.48,1.49-.73.38-1.56.58-2.48.58ZM637.66,45.81c.91,0,1.64-.26,2.17-.77.54-.51.8-1.22.8-2.14v-.62l-2.47.19c-.91.08-1.56.27-1.94.56-.38.3-.58.68-.58,1.16,0,.53.18.93.53,1.2.35.27.85.41,1.49.41Z"/>
          <path class="cls-1" d="M644.41,35.85h7.49v2.45h-7.49v-2.45ZM649.61,47.71h-2.93v-15.55h2.93v15.55Z"/>
          <path class="cls-1" d="M658.33,48.02c-1.17,0-2.2-.27-3.11-.8-.9-.54-1.61-1.27-2.12-2.21-.51-.94-.77-2.01-.77-3.23s.25-2.32.74-3.26c.5-.94,1.19-1.68,2.09-2.22.9-.54,1.92-.8,3.07-.8s2.23.25,3.1.76c.86.5,1.53,1.2,2,2.1s.71,1.97.71,3.22v.89l-10.18.02.05-1.87h7.22c0-.82-.26-1.47-.78-1.97-.52-.5-1.22-.74-2.1-.74-.69,0-1.27.14-1.74.43-.47.29-.83.72-1.07,1.3-.24.58-.36,1.28-.36,2.11,0,1.28.28,2.25.83,2.9.55.66,1.37.98,2.46.98.8,0,1.46-.15,1.98-.46.52-.3.86-.74,1.02-1.3h2.71c-.26,1.3-.89,2.31-1.91,3.05-1.02.74-2.3,1.1-3.85,1.1Z"/>
          <path class="cls-1" d="M664.88,44.11h2.78c.02.51.21.92.58,1.22.37.3.88.46,1.54.46.7,0,1.24-.13,1.6-.38.36-.26.54-.6.54-1.03,0-.29-.1-.54-.29-.77-.19-.22-.55-.39-1.08-.5l-2.14-.5c-1.07-.24-1.87-.63-2.39-1.16-.52-.54-.78-1.28-.78-2.22,0-.77.2-1.43.61-1.99.41-.56.96-.99,1.67-1.28.7-.3,1.51-.44,2.42-.44s1.66.16,2.33.48c.67.32,1.2.77,1.57,1.34.38.58.57,1.25.59,2.02h-2.78c0-.51-.16-.92-.48-1.21-.32-.3-.77-.44-1.34-.44s-1.02.13-1.34.38c-.32.26-.48.6-.48,1.03,0,.66.51,1.1,1.54,1.34l2.14.5c.99.22,1.74.58,2.24,1.08.5.5.76,1.2.76,2.11,0,.8-.21,1.49-.62,2.08-.42.58-1,1.03-1.75,1.34-.75.31-1.62.47-2.59.47-1.47,0-2.64-.36-3.52-1.08-.87-.72-1.31-1.66-1.31-2.83Z"/>
        </g>
        <g>
          <path class="cls-1" d="M602.48,84.82h-2.93l-.68-1.9h-4.2l-.68,1.9h-2.76l4.21-10.33h2.98l4.06,10.33ZM596.77,77.14l-1.33,3.66h2.65l-1.33-3.66Z"/>
          <path class="cls-1" d="M603.79,74.49l4-.02c1.58,0,2.86.45,3.83,1.36.99.89,1.48,2.17,1.48,3.83s-.49,2.94-1.48,3.84c-.98.89-2.25,1.34-3.83,1.34v-.02l-2.76.02v-.02h-1.23v-10.33ZM606.46,82.42h1.33c.78,0,1.39-.23,1.81-.7.43-.47.64-1.15.64-2.06s-.22-1.59-.65-2.07c-.43-.47-1.03-.71-1.8-.71h-1.33v5.54Z"/>
          <path class="cls-1" d="M619.28,81.41l2.59-6.92h2.88l-4.23,10.33h-2.67l-4.03-10.33h3.08l2.36,6.92Z"/>
          <path class="cls-1" d="M626.06,84.82v-10.33h2.67v10.33h-2.67Z"/>
          <path class="cls-1" d="M634.61,78.17l1.9.31c1.19.2,2.11.56,2.75,1.1.64.54.96,1.25.96,2.12,0,1-.44,1.8-1.31,2.42-.88.62-2,.93-3.35.93-1.44,0-2.58-.3-3.42-.91-.82-.63-1.31-1.4-1.47-2.33l2.41-.72c.33,1.14,1.14,1.71,2.44,1.71,1.19,0,1.79-.36,1.79-1.08,0-.44-.32-.71-.97-.82l-2.39-.4c-1.94-.33-2.92-1.29-2.92-2.87,0-1.04.4-1.86,1.19-2.47.79-.61,1.83-.91,3.1-.91,2.52,0,4.12.94,4.81,2.82l-2.31.97c-.24-.51-.55-.9-.93-1.16s-.91-.39-1.57-.39c-.52,0-.93.08-1.23.25-.29.17-.44.4-.44.69,0,.37.32.61.96.73Z"/>
          <path class="cls-1" d="M652.59,79.65c0,1.62-.52,2.93-1.57,3.92-1.04.99-2.34,1.48-3.92,1.48s-2.94-.49-3.96-1.47c-1.02-.97-1.53-2.28-1.53-3.93s.51-2.95,1.54-3.92c1.04-.99,2.35-1.48,3.95-1.48s2.91.49,3.95,1.48c1.03.97,1.54,2.27,1.54,3.92ZM647.1,82.59c.79,0,1.43-.26,1.91-.78.48-.52.73-1.24.73-2.15s-.24-1.63-.73-2.15c-.48-.52-1.12-.78-1.91-.78s-1.44.26-1.92.77c-.48.51-.72,1.23-.72,2.16s.24,1.65.72,2.16c.48.51,1.12.77,1.92.77Z"/>
          <path class="cls-1" d="M663.1,83.25v.32c0,.18.09.38.26.57.19.19.28.34.28.46v.22h-2.79c-.28,0-.42-.43-.42-1.3v-.35c0-.85-.12-1.4-.37-1.65-.25-.25-.65-.37-1.22-.37h-1.68v3.67h-2.67v-10.33h5.82c1.04,0,1.86.27,2.46.79.6.51.9,1.22.9,2.13,0,1.39-.75,2.3-2.24,2.73,1.11.33,1.67,1.37,1.67,3.12ZM657.16,76.8v2.07h2.59c.32,0,.58-.1.77-.29s.29-.46.29-.79c0-.31-.1-.55-.29-.73-.19-.17-.45-.26-.78-.26h-2.59Z"/>
          <path class="cls-1" d="M672.52,74.49h2.87l-4.23,6.31v4.04h-2.67v-3.93l-4.21-6.42h3.35l2.38,3.95,2.51-3.95Z"/>
        </g>
        <g>
          <circle class="cls-1" cx="403.33" cy="80.6" r="4.88"/>
          <circle class="cls-1" cx="552.52" cy="80.6" r="4.88"/>
        </g>
        <rect class="cls-1" x="280.81" y="61.01" width="393.86" height=".75"/>
      </g>
    </g>
  </g>
</svg>